<svg width="224" height="121" viewBox="0 0 224 121" fill="none" xmlns="http://www.w3.org/2000/svg">
<g clip-path="url(#clip0_4_5591)">
<path d="M93.8295 36.434V49.3171H114.581V65.3834H93.8295V79.3743H133.657V95.9944H82.3493C79.6752 95.9944 77.3722 95.0479 75.4332 93.1549C73.4976 91.2619 72.5281 88.9306 72.5281 86.1612V19.8103H132.271V36.4305H93.826L93.8295 36.434Z" fill="#3C3C3B"/>
<path d="M38.7421 11.3021C50.2223 11.3021 59.3434 14.0996 66.109 19.6946C72.8746 25.2895 76.2557 32.9108 76.2557 42.5617C76.2557 52.2127 72.8746 59.8339 66.109 65.4289C59.3434 71.0239 50.2223 73.8214 38.7421 73.8214H23.9824V87.3706C23.9824 89.7334 23.1354 91.7596 21.4448 93.4528C19.7543 95.146 17.6788 95.9944 15.2182 95.9944H0V11.3021H38.7421ZM23.9824 30.0887V54.8805H37.2056C42.1267 54.8805 45.8402 53.8288 48.3533 51.7254C50.8628 49.6221 52.1193 46.5687 52.1193 42.5617C52.1193 38.5548 50.8628 35.4769 48.3533 33.3209C45.8437 31.165 42.1267 30.0887 37.2056 30.0887H23.9824Z" fill="#3C3C3B"/>
<path d="M199.682 95.6894C195.167 95.6894 191.691 93.8349 189.258 90.1225L173.102 65.9372L173.067 65.9898L166.127 55.7814C162.098 49.275 162.074 46.5687 166.155 40.0167L189.78 4.17519C191.747 1.39173 194.355 0 197.596 0H221.914L188.562 46.1059L224 95.6929H199.682V95.6894Z" fill="#3C3C3B"/>
<path d="M143.166 104.46C147.562 104.46 150.943 102.655 153.309 99.0408L169.032 75.5075L169.063 75.5566L175.818 65.6217C179.738 59.2905 179.763 56.6578 175.794 50.2776L152.805 15.4002C150.891 12.6903 148.353 11.3372 145.2 11.3372H121.532L153.988 56.2056L119.502 104.46H143.17H143.166Z" fill="#F09200"/>
<path d="M23.7409 111.258C25.0394 111.258 26.0334 111.577 26.7264 112.211C27.4194 112.846 27.7659 113.729 27.7659 114.862C27.7659 115.994 27.4264 116.891 26.7509 117.55C26.0754 118.21 25.0429 118.539 23.6569 118.539H21.1718V111.254H23.7409V111.258ZM23.8249 117.102C24.5669 117.102 25.1374 116.916 25.5364 116.541C25.9354 116.166 26.1349 115.619 26.1349 114.904C26.1349 114.189 25.9354 113.638 25.5364 113.253C25.1374 112.867 24.5249 112.674 23.6989 112.674H22.7924V117.102H23.8214H23.8249ZM36.1696 111.258V112.706H32.5505V114.206H35.8056V115.591H32.5505V117.102H36.2851V118.539H30.9265V111.254H36.1696V111.258ZM39.4841 118.543V111.258H41.1081V117.091H44.2092V118.539H39.4876L39.4841 118.543ZM47.1457 111.258H48.7698V118.543H47.1457V111.258ZM54.9964 115.896L56.8479 111.258H58.6049L55.6824 118.543H54.3103L51.3878 111.258H53.1448L54.9964 115.896ZM66.466 111.258V112.706H62.847V114.206H66.102V115.591H62.847V117.102H66.5815V118.539H61.223V111.254H66.466V111.258ZM75.6782 113.677C75.6782 114.844 75.2162 115.598 74.2957 115.938L76.1367 118.543H74.1382L72.5246 116.218H71.4011V118.543H69.7771V111.258H72.5351C73.6656 111.258 74.4707 111.447 74.9537 111.829C75.4367 112.211 75.6782 112.825 75.6782 113.673V113.677ZM72.5876 114.813C73.1441 114.813 73.5221 114.721 73.7217 114.543C73.9212 114.36 74.0227 114.076 74.0227 113.684C74.0227 113.291 73.9177 113.021 73.7112 112.877C73.5047 112.73 73.1406 112.66 72.6191 112.66H71.4011V114.816H72.5876V114.813ZM82.0378 118.543H80.4138V115.668L77.8972 111.261H79.6542L81.2258 113.971L82.7973 111.261H84.5543L82.0378 115.668V118.543ZM92.4049 111.258C93.7035 111.258 94.6975 111.577 95.3905 112.211C96.0835 112.846 96.43 113.729 96.43 114.862C96.43 115.994 96.0905 116.891 95.415 117.55C94.7395 118.21 93.707 118.539 92.3209 118.539H89.8359V111.254H92.4049V111.258ZM92.4889 117.102C93.231 117.102 93.8015 116.916 94.2005 116.541C94.5995 116.166 94.799 115.619 94.799 114.904C94.799 114.189 94.5995 113.638 94.2005 113.253C93.8015 112.867 93.189 112.674 92.3629 112.674H91.4564V117.102H92.4854H92.4889ZM104.561 118.539L103.885 116.965H100.837L100.161 118.539H98.4355L101.579 111.254H103.15L106.293 118.539H104.568H104.561ZM102.366 113.424L101.449 115.538H103.269L102.363 113.424H102.366ZM114.97 117.102C115.768 117.102 116.419 116.786 116.926 116.155L117.966 117.228C117.14 118.16 116.167 118.623 115.047 118.623C113.927 118.623 113.003 118.269 112.278 117.561C111.554 116.853 111.19 115.959 111.19 114.879C111.19 113.799 111.557 112.899 112.299 112.176C113.038 111.454 113.941 111.093 115.008 111.093C116.202 111.093 117.199 111.549 118.004 112.457L116.996 113.603C116.482 112.965 115.845 112.646 115.082 112.646C114.473 112.646 113.951 112.846 113.517 113.246C113.083 113.645 112.866 114.182 112.866 114.862C112.866 115.542 113.069 116.082 113.479 116.492C113.888 116.902 114.385 117.105 114.966 117.105L114.97 117.102ZM126.408 114.858C126.408 114.21 126.201 113.656 125.785 113.196C125.368 112.737 124.857 112.509 124.252 112.509C123.646 112.509 123.135 112.737 122.719 113.196C122.302 113.656 122.096 114.21 122.096 114.858C122.096 115.507 122.302 116.061 122.719 116.516C123.135 116.972 123.646 117.2 124.252 117.2C124.857 117.2 125.372 116.972 125.785 116.516C126.201 116.061 126.408 115.51 126.408 114.858ZM126.961 117.536C126.226 118.255 125.319 118.616 124.245 118.616C123.17 118.616 122.264 118.255 121.529 117.536C120.794 116.818 120.426 115.924 120.426 114.855C120.426 113.785 120.794 112.892 121.529 112.173C122.264 111.454 123.17 111.093 124.245 111.093C125.319 111.093 126.226 111.454 126.961 112.173C127.696 112.892 128.064 113.785 128.064 114.855C128.064 115.924 127.696 116.818 126.961 117.536ZM136.278 111.258H137.902V118.543H136.278L132.813 113.978V118.543H131.189V111.258H132.708L136.275 115.945V111.258H136.278ZM143.786 112.52C143.516 112.52 143.303 112.583 143.145 112.713C142.988 112.842 142.911 113.011 142.911 113.225C142.911 113.438 143.005 113.607 143.198 113.729C143.387 113.856 143.828 114.003 144.517 114.171C145.207 114.343 145.742 114.595 146.124 114.935C146.505 115.275 146.694 115.773 146.694 116.425C146.694 117.077 146.449 117.607 145.959 118.013C145.469 118.42 144.829 118.623 144.031 118.623C142.879 118.623 141.843 118.196 140.919 117.34L141.885 116.152C142.669 116.839 143.394 117.182 144.059 117.182C144.356 117.182 144.591 117.119 144.762 116.99C144.934 116.86 145.018 116.688 145.018 116.467C145.018 116.246 144.927 116.075 144.748 115.945C144.566 115.815 144.209 115.685 143.677 115.556C142.83 115.356 142.211 115.093 141.819 114.771C141.427 114.448 141.231 113.94 141.231 113.249C141.231 112.558 141.479 112.026 141.976 111.651C142.473 111.275 143.093 111.09 143.835 111.09C144.321 111.09 144.804 111.174 145.291 111.339C145.777 111.507 146.201 111.742 146.561 112.047L145.739 113.235C145.109 112.755 144.454 112.516 143.782 112.516L143.786 112.52ZM152.851 112.667V118.543H151.227V112.667H149.165V111.261H154.909V112.667H152.847H152.851ZM163.75 113.677C163.75 114.844 163.288 115.598 162.368 115.938L164.209 118.543H162.21L160.597 116.218H159.473V118.543H157.849V111.258H160.607C161.738 111.258 162.543 111.447 163.026 111.829C163.509 112.211 163.75 112.825 163.75 113.673V113.677ZM160.66 114.813C161.216 114.813 161.594 114.721 161.794 114.543C161.993 114.36 162.095 114.076 162.095 113.684C162.095 113.291 161.99 113.021 161.783 112.877C161.577 112.73 161.213 112.66 160.691 112.66H159.473V114.816H160.66V114.813ZM169.091 116.664C169.361 117 169.725 117.168 170.183 117.168C170.642 117.168 171.002 117 171.272 116.664C171.538 116.327 171.671 115.868 171.671 115.282V111.261H173.295V115.335C173.295 116.39 173.004 117.203 172.42 117.768C171.835 118.332 171.093 118.616 170.183 118.616C169.273 118.616 168.528 118.332 167.943 117.761C167.359 117.193 167.065 116.383 167.065 115.331V111.258H168.689V115.279C168.689 115.861 168.825 116.324 169.095 116.66L169.091 116.664ZM180.071 117.105C180.869 117.105 181.52 116.79 182.027 116.159L183.067 117.231C182.367 118.024 181.527 118.479 180.55 118.595L180.281 119.096C180.732 119.251 180.956 119.514 180.956 119.889C180.956 120.187 180.834 120.45 180.589 120.67C180.344 120.891 180.032 121.004 179.658 121.004C179.283 121.004 178.919 120.891 178.566 120.67L178.961 119.773C179.115 119.906 179.248 119.969 179.367 119.969C179.486 119.969 179.577 119.938 179.644 119.875C179.71 119.812 179.742 119.734 179.742 119.64C179.742 119.545 179.7 119.461 179.616 119.391C179.532 119.317 179.434 119.282 179.318 119.282C179.203 119.282 179.08 119.314 178.947 119.377L179.374 118.564C178.471 118.409 177.733 117.996 177.159 117.319C176.585 116.643 176.294 115.798 176.294 114.781C176.294 113.764 176.662 112.899 177.404 112.176C178.142 111.454 179.045 111.093 180.113 111.093C181.306 111.093 182.304 111.549 183.109 112.457L182.101 113.603C181.586 112.965 180.949 112.646 180.186 112.646C179.577 112.646 179.056 112.846 178.622 113.246C178.188 113.645 177.971 114.182 177.971 114.862C177.971 115.542 178.174 116.082 178.583 116.492C178.993 116.902 179.49 117.105 180.071 117.105ZM191.281 118.543L190.606 116.969H187.557L186.882 118.543H185.156L188.299 111.258H189.871L193.014 118.543H191.288H191.281ZM189.087 113.428L188.17 115.542H189.99L189.083 113.428H189.087ZM188.422 109.989C188.208 109.989 188.103 110.171 188.11 110.532H187.008C187.008 110.01 187.12 109.603 187.347 109.302C187.571 109.004 187.862 108.853 188.215 108.853C188.436 108.853 188.705 108.948 189.02 109.14C189.335 109.33 189.528 109.428 189.598 109.428C189.811 109.428 189.916 109.246 189.909 108.885H191.012C191.012 109.407 190.9 109.817 190.672 110.115C190.448 110.413 190.158 110.564 189.804 110.564C189.591 110.564 189.318 110.469 188.992 110.276C188.667 110.087 188.474 109.989 188.422 109.989ZM201.173 114.858C201.173 114.21 200.966 113.656 200.55 113.196C200.133 112.737 199.622 112.509 199.017 112.509C198.411 112.509 197.897 112.737 197.484 113.196C197.067 113.656 196.861 114.21 196.861 114.858C196.861 115.507 197.067 116.061 197.484 116.516C197.9 116.972 198.411 117.2 199.017 117.2C199.622 117.2 200.137 116.972 200.55 116.516C200.966 116.061 201.173 115.51 201.173 114.858ZM201.726 117.536C200.991 118.255 200.084 118.616 199.01 118.616C197.935 118.616 197.029 118.255 196.294 117.536C195.559 116.818 195.191 115.924 195.191 114.855C195.191 113.785 195.559 112.892 196.294 112.173C197.029 111.454 197.935 111.093 199.01 111.093C200.084 111.093 200.991 111.454 201.726 112.173C202.461 112.892 202.828 113.785 202.828 114.855C202.828 115.924 202.461 116.818 201.726 117.536Z" fill="#9D9C9C"/>
</g>
<defs>
<clipPath id="clip0_4_5591">
<rect width="224" height="121" fill="white"/>
</clipPath>
</defs>
</svg>
